<svg width="23" height="15" viewBox="0 0 23 15" fill="none" xmlns="http://www.w3.org/2000/svg">
<path d="M0.533447 14.8961L1.26973 14.1641L1.45916 13.9687C1.61345 13.8058 1.78488 13.6181 1.97088 13.4072C2.50145 12.8038 3.03202 12.1404 3.52659 11.4375C4.3683 10.241 5.0163 9.0581 5.39259 7.93953C6.4503 4.79638 10.4986 3.89724 13.0409 6.85696C15.8274 10.1012 13.0092 14.897 8.4303 14.897H0.535162L0.533447 14.8961ZM8.42859 14.039C12.3234 14.039 14.6617 10.0601 12.3894 7.41496C10.2894 4.96953 7.05373 5.68781 6.2043 8.21296C5.79802 9.41981 5.11316 10.6721 4.22688 11.9304C3.71345 12.6607 3.16316 13.3472 2.61373 13.973L2.55545 14.0398H8.42945L8.42859 14.039Z" fill="#AEADAD"/>
<path d="M14.5846 0.326385L13.3683 1.42867C12.4846 2.2301 12.4469 3.57239 13.286 4.41153L14.8949 6.02039C15.7314 6.85696 17.0832 6.8381 17.906 5.98181L22.7489 0.946957L22.1309 0.352957L17.288 5.38781C16.796 5.89867 15.9963 5.90981 15.5 5.41439L13.8912 3.80553C13.3992 3.31353 13.4214 2.53696 13.9434 2.06381L15.1597 0.961528L14.5846 0.326385Z" fill="#AEADAD"/>
</svg>
