<svg width="19" height="19" viewBox="0 0 19 19" fill="none" xmlns="http://www.w3.org/2000/svg">
<path d="M17.716 17.7142C17.7142 17.7142 17.7142 13.4311 17.7142 13.4311L11.7125 13.4285C11.7142 13.4285 11.7142 17.7117 11.7142 17.7117L17.716 17.7142ZM10.8571 13.4311C10.8568 13.3184 10.8786 13.2069 10.9214 13.1027C10.9643 12.9985 11.0272 12.9038 11.1066 12.8239C11.1861 12.7441 11.2805 12.6807 11.3844 12.6373C11.4884 12.594 11.5999 12.5716 11.7125 12.5714H17.716C18.1882 12.5714 18.5714 12.9468 18.5714 13.4311V17.7117C18.5717 17.8243 18.5499 17.9359 18.507 18.0401C18.4642 18.1442 18.4013 18.239 18.3218 18.3188C18.2424 18.3986 18.148 18.462 18.044 18.5054C17.9401 18.5487 17.8286 18.5711 17.716 18.5714H11.7125C11.5997 18.5719 11.4878 18.5501 11.3835 18.507C11.2792 18.464 11.1845 18.4006 11.1048 18.3206C11.0252 18.2406 10.9623 18.1455 10.9198 18.041C10.8773 17.9365 10.856 17.8245 10.8571 17.7117V13.4311Z" fill="#AEADAD"/>
<path fill-rule="evenodd" clip-rule="evenodd" d="M14.2857 15.1428H15.1428V16.8571H14.2857V15.1428Z" fill="#AEADAD"/>
<path d="M16.8571 10.4285C16.8571 9.86018 16.6314 9.31514 16.2295 8.91327C15.8276 8.51141 15.2826 8.28564 14.7143 8.28564C14.1459 8.28564 13.6009 8.51141 13.199 8.91327C12.7972 9.31514 12.5714 9.86018 12.5714 10.4285V12.9999H13.4286V10.4285C13.4286 10.0875 13.564 9.76048 13.8051 9.51936C14.0462 9.27825 14.3733 9.14279 14.7143 9.14279C15.0553 9.14279 15.3823 9.27825 15.6234 9.51936C15.8645 9.76048 16 10.0875 16 10.4285V10.8571H16.8571V10.4285Z" fill="#AEADAD"/>
<path d="M0.571411 10.6059C0.57146 10.3786 0.661797 10.1606 0.822554 9.99993L10.3763 0.44622C10.4957 0.326743 10.6374 0.231964 10.7935 0.167299C10.9495 0.102634 11.1168 0.0693512 11.2857 0.0693512C11.4546 0.0693512 11.6219 0.102634 11.7779 0.167299C11.934 0.231964 12.0757 0.326743 12.1951 0.44622L14.4108 2.66193C14.5303 2.78133 14.6251 2.92311 14.6898 3.07915C14.7544 3.23519 14.7877 3.40245 14.7877 3.57136C14.7877 3.74027 14.7544 3.90753 14.6898 4.06357C14.6251 4.21962 14.5303 4.36139 14.4108 4.48079L4.85713 14.0345C4.69642 14.1953 4.47844 14.2856 4.25113 14.2856H1.42855C1.20123 14.2856 0.983208 14.1953 0.822462 14.0346C0.661717 13.8739 0.571411 13.6558 0.571411 13.4285V10.6059ZM1.42855 10.6059V13.4285H4.25113L13.8048 3.87479C13.8448 3.83498 13.8764 3.78769 13.898 3.73562C13.9196 3.68355 13.9307 3.62773 13.9307 3.57136C13.9307 3.51499 13.9196 3.45917 13.898 3.4071C13.8764 3.35504 13.8448 3.30774 13.8048 3.26793L11.5891 1.05222C11.5493 1.01231 11.502 0.980643 11.45 0.959037C11.3979 0.937432 11.3421 0.926311 11.2857 0.926311C11.2293 0.926311 11.1735 0.937432 11.1214 0.959037C11.0694 0.980643 11.0221 1.01231 10.9823 1.05222L1.42855 10.6059Z" fill="#AEADAD"/>
<path d="M9.268 2.16051L12.6966 5.58908L13.3034 4.98222L9.87485 1.55365L9.268 2.16051ZM1.55371 9.87479L4.98228 13.3034L5.58914 12.6965L2.16057 9.26794L1.55371 9.87479Z" fill="#AEADAD"/>
<path d="M10.9823 3.26793L3.26801 10.9822L3.87486 11.5891L11.5891 3.87479L10.9823 3.26793Z" fill="#AEADAD"/>
</svg>
