<svg width="14" height="17" viewBox="0 0 14 17" fill="none" xmlns="http://www.w3.org/2000/svg">
<path d="M7.00003 5.84411C6.54537 5.84411 6.10933 6.02472 5.78784 6.34621C5.46635 6.6677 5.28574 7.10373 5.28574 7.55839V16.987H0.142883V7.55839C0.142883 3.77325 3.21488 0.701248 7.00003 0.701248C10.7852 0.701248 13.8572 3.77325 13.8572 7.55839V16.987H8.71431V7.55839C8.71431 7.10373 8.5337 6.6677 8.21221 6.34621C7.89072 6.02472 7.45468 5.84411 7.00003 5.84411ZM4.4286 7.55839C4.4286 6.87641 4.69951 6.22235 5.18175 5.74012C5.66399 5.25788 6.31804 4.98696 7.00003 4.98696C7.68201 4.98696 8.33606 5.25788 8.8183 5.74012C9.30054 6.22235 9.57146 6.87641 9.57146 7.55839V16.1298H13V7.55839C13 4.24639 10.312 1.55839 7.00003 1.55839C3.68803 1.55839 1.00003 4.24639 1.00003 7.55839V16.1298H4.4286V7.55839Z" fill="#AEADAD"/>
<path fill-rule="evenodd" clip-rule="evenodd" d="M0.571472 12.7012H4.85719V13.5584H0.571472V12.7012ZM9.1429 12.7012H13.4286V13.5584H9.1429V12.7012Z" fill="#AEADAD"/>
</svg>
