<svg width="22" height="22" viewBox="0 0 22 22" fill="none" xmlns="http://www.w3.org/2000/svg">
<path d="M1.15102 15.5154C0.909901 15.7565 0.774443 16.0835 0.774442 16.4245C0.774442 16.7655 0.909901 17.0925 1.15102 17.3336L4.48452 20.6671C4.72564 20.9083 5.05267 21.0437 5.39366 21.0437C5.73465 21.0437 6.06168 20.9083 6.3028 20.6671L20.849 6.12094C21.0901 5.87983 21.2256 5.5528 21.2256 5.21181C21.2256 4.87081 21.0901 4.54379 20.849 4.30267L17.5155 0.969166C17.2744 0.728048 16.9473 0.592589 16.6064 0.592589C16.2654 0.592589 15.9383 0.728048 15.6972 0.969165L1.15102 15.5154ZM1.75711 16.1215L3.57539 14.3032L5.09061 15.8184L5.69671 15.2123L4.18148 13.6971L6.15127 11.7273L8.51503 14.091L9.12112 13.485L6.75737 11.1212L8.72716 9.1514L10.2424 10.6666L10.8485 10.0605L9.33326 8.54531L11.3031 6.57551L13.6668 8.93927L14.2729 8.33318L11.9091 5.96942L13.8789 3.99962L15.3942 5.51485L16.0003 4.90876L14.485 3.39353L16.3033 1.57526C16.3837 1.49488 16.4927 1.44973 16.6064 1.44973C16.72 1.44973 16.829 1.49488 16.9094 1.57526L20.2429 4.90876C20.3233 4.98913 20.3684 5.09814 20.3684 5.21181C20.3684 5.32547 20.3233 5.43448 20.2429 5.51485L5.69671 20.061C5.61633 20.1414 5.50732 20.1866 5.39366 20.1866C5.28 20.1866 5.17099 20.1414 5.09061 20.061L1.75711 16.7275C1.67674 16.6472 1.63159 16.5382 1.63159 16.4245C1.63159 16.3108 1.67674 16.2018 1.75711 16.1215Z" fill="#AEADAD"/>
</svg>
