<svg width="20" height="20" viewBox="0 0 20 20" fill="none" xmlns="http://www.w3.org/2000/svg">
<path d="M4.30339 16.0307L16.3034 4.0307L15.6974 3.4247L3.69739 15.4247L4.30339 16.0307Z" fill="#AEADAD"/>
<path d="M17.2857 3.72726C17.9954 3.72726 18.5714 3.15126 18.5714 2.44155C18.5714 1.73183 17.9954 1.15583 17.2857 1.15583C16.576 1.15583 16 1.73183 16 2.44155C16 3.15126 16.576 3.72726 17.2857 3.72726ZM17.2857 4.5844C16.102 4.5844 15.1428 3.62526 15.1428 2.44155C15.1428 1.25783 16.102 0.298691 17.2857 0.298691C18.4694 0.298691 19.4286 1.25783 19.4286 2.44155C19.4286 3.62526 18.4694 4.5844 17.2857 4.5844ZM2.71427 18.2987C3.42398 18.2987 3.99998 17.7227 3.99998 17.013C3.99998 16.3033 3.42398 15.7273 2.71427 15.7273C2.00455 15.7273 1.42855 16.3033 1.42855 17.013C1.42855 17.7227 2.00455 18.2987 2.71427 18.2987ZM2.71427 19.1558C1.53055 19.1558 0.571411 18.1967 0.571411 17.013C0.571411 15.8293 1.53055 14.8701 2.71427 14.8701C3.89798 14.8701 4.85713 15.8293 4.85713 17.013C4.85713 18.1967 3.89798 19.1558 2.71427 19.1558Z" fill="#AEADAD"/>
</svg>
