<svg width="21" height="20" viewBox="0 0 21 20" fill="none" xmlns="http://www.w3.org/2000/svg">
<path d="M15.5277 4.92635L17.3303 12.7366L18.1651 12.5438L16.3626 4.73349L15.5277 4.92635ZM9.95113 9.64578L16.492 13.8081L16.9523 13.0846L10.4114 8.92235L9.95113 9.64578ZM10.3248 7.67864L14.4494 4.58521L13.9351 3.8995L9.81056 6.99292L10.3248 7.67864ZM7.39428 9.48892L3.3477 15.2695L4.0497 15.7606L8.09628 9.98007L7.39428 9.48892ZM3.42656 15.3535L5.40656 4.13521L4.56228 3.98607L2.58228 15.2044L3.42656 15.3535ZM5.74942 4.02549L7.45942 7.01864L8.20342 6.59349L6.49342 3.60035L5.74942 4.02549Z" fill="#AEADAD"/>
<path d="M5.2857 3.63635C5.99541 3.63635 6.57141 3.06035 6.57141 2.35064C6.57141 1.64092 5.99541 1.06492 5.2857 1.06492C4.57598 1.06492 3.99998 1.64092 3.99998 2.35064C3.99998 3.06035 4.57598 3.63635 5.2857 3.63635ZM5.2857 4.49349C4.10198 4.49349 3.14284 3.53435 3.14284 2.35064C3.14284 1.16692 4.10198 0.207781 5.2857 0.207781C6.46941 0.207781 7.42855 1.16692 7.42855 2.35064C7.42855 3.53435 6.46941 4.49349 5.2857 4.49349ZM2.71427 18.2078C3.42398 18.2078 3.99998 17.6318 3.99998 16.9221C3.99998 16.2124 3.42398 15.6364 2.71427 15.6364C2.00455 15.6364 1.42855 16.2124 1.42855 16.9221C1.42855 17.6318 2.00455 18.2078 2.71427 18.2078ZM2.71427 19.0649C1.53055 19.0649 0.571411 18.1058 0.571411 16.9221C0.571411 15.7384 1.53055 14.7792 2.71427 14.7792C3.89798 14.7792 4.85713 15.7384 4.85713 16.9221C4.85713 18.1058 3.89798 19.0649 2.71427 19.0649ZM8.71427 9.63635C9.42398 9.63635 9.99998 9.06035 9.99998 8.35064C9.99998 7.64092 9.42398 7.06492 8.71427 7.06492C8.00455 7.06492 7.42855 7.64092 7.42855 8.35064C7.42855 9.06035 8.00455 9.63635 8.71427 9.63635ZM8.71427 10.4935C7.53055 10.4935 6.57141 9.53435 6.57141 8.35064C6.57141 7.16692 7.53055 6.20778 8.71427 6.20778C9.89798 6.20778 10.8571 7.16692 10.8571 8.35064C10.8571 9.53435 9.89798 10.4935 8.71427 10.4935ZM15.5714 4.49349C16.2811 4.49349 16.8571 3.9175 16.8571 3.20778C16.8571 2.49807 16.2811 1.92207 15.5714 1.92207C14.8617 1.92207 14.2857 2.49807 14.2857 3.20778C14.2857 3.9175 14.8617 4.49349 15.5714 4.49349ZM15.5714 5.35064C14.3877 5.35064 13.4286 4.3915 13.4286 3.20778C13.4286 2.02407 14.3877 1.06492 15.5714 1.06492C16.7551 1.06492 17.7143 2.02407 17.7143 3.20778C17.7143 4.3915 16.7551 5.35064 15.5714 5.35064ZM18.1428 15.6364C18.8526 15.6364 19.4286 15.0604 19.4286 14.3506C19.4286 13.6409 18.8526 13.0649 18.1428 13.0649C17.4331 13.0649 16.8571 13.6409 16.8571 14.3506C16.8571 15.0604 17.4331 15.6364 18.1428 15.6364ZM18.1428 16.4935C16.9591 16.4935 16 15.5344 16 14.3506C16 13.1669 16.9591 12.2078 18.1428 12.2078C19.3266 12.2078 20.2857 13.1669 20.2857 14.3506C20.2857 15.5344 19.3266 16.4935 18.1428 16.4935Z" fill="#AEADAD"/>
</svg>
