<svg width="24" height="24" viewBox="0 0 24 24" fill="none" xmlns="http://www.w3.org/2000/svg">
<path d="M14 9V15H17V9H14ZM13.5 8H17.5C17.6326 8 17.7598 8.05268 17.8536 8.14645C17.9473 8.24021 18 8.36739 18 8.5V15.5C18 15.6326 17.9473 15.7598 17.8536 15.8536C17.7598 15.9473 17.6326 16 17.5 16H13.5C13.3674 16 13.2402 15.9473 13.1464 15.8536C13.0527 15.7598 13 15.6326 13 15.5V8.5C13 8.36739 13.0527 8.24021 13.1464 8.14645C13.2402 8.05268 13.3674 8 13.5 8Z" fill="#F2F1F0"/>
<path d="M15 5H16V8.5H15V5ZM15 15.5H16V19H15V15.5Z" fill="#F2F1F0"/>
<path d="M7 6V18H10V6H7ZM6.5 5H10.5C10.6326 5 10.7598 5.05268 10.8536 5.14645C10.9473 5.24021 11 5.36739 11 5.5V18.5C11 18.6326 10.9473 18.7598 10.8536 18.8536C10.7598 18.9473 10.6326 19 10.5 19H6.5C6.36739 19 6.24021 18.9473 6.14645 18.8536C6.05268 18.7598 6 18.6326 6 18.5V5.5C6 5.36739 6.05268 5.24021 6.14645 5.14645C6.24021 5.05268 6.36739 5 6.5 5Z" fill="#F2F1F0"/>
<path d="M8 2.675H9V6H8V2.675ZM8 18.35H9V21.675H8V18.35Z" fill="#F2F1F0"/>
</svg>
