<svg width="13" height="17" viewBox="0 0 13 17" fill="none" xmlns="http://www.w3.org/2000/svg">
<path d="M11.997 11.5521L7.40916 16.14M7.40916 11.5521L11.997 16.14M1.90371 6.50545H8.32674M9.7031 3.29394C9.7031 2.68555 9.46142 2.10208 9.03122 1.67188C8.60103 1.24168 8.01755 1 7.40916 1C6.80077 1 6.2173 1.24168 5.7871 1.67188C5.35691 2.10208 5.11522 2.68555 5.11522 3.29394V13.3873C5.11522 13.9957 4.87354 14.5791 4.44334 15.0093C4.01315 15.4395 3.42967 15.6812 2.82128 15.6812C2.21289 15.6812 1.62942 15.4395 1.19922 15.0093C0.769026 14.5791 0.527344 13.9957 0.527344 13.3873" stroke="#F2F1F0"/>
</svg>
